<svg width="100" height="100" viewBox="0 0 100 100" fill="none" xmlns="http://www.w3.org/2000/svg">
    <path
        d="M83.1875 35.5043C83.2834 34.7793 83.3334 34.0543 83.3334 33.3335C83.3334 23.421 74.4042 15.4668 64.4959 16.8127C61.6084 11.6752 56.1084 8.3335 50 8.3335C43.8917 8.3335 38.3917 11.6752 35.5042 16.8127C25.575 15.4668 16.6667 23.421 16.6667 33.3335C16.6667 34.0543 16.7167 34.7793 16.8125 35.5043C11.675 38.396 8.33337 43.896 8.33337 50.0002C8.33337 56.1043 11.675 61.6043 16.8125 64.496C16.7167 65.221 16.6667 65.946 16.6667 66.6668C16.6667 76.5793 25.575 84.5127 35.5042 83.1877C38.3917 88.3252 43.8917 91.6668 50 91.6668C56.1084 91.6668 61.6084 88.3252 64.4959 83.1877C74.4042 84.5127 83.3334 76.5793 83.3334 66.6668C83.3334 65.946 83.2834 65.221 83.1875 64.496C88.325 61.6043 91.6667 56.1043 91.6667 50.0002C91.6667 43.896 88.325 38.396 83.1875 35.5043ZM45.6459 68.4002L30.3667 52.9252L36.3 47.0752L45.7042 56.6002L63.7334 38.7085L69.6 44.6252L45.6459 68.4002Z"
        fill="#00C9C8" fill-opacity="0.7" />
</svg>
