<svg width="24" height="24" viewBox="0 0 24 24" fill="none" xmlns="http://www.w3.org/2000/svg">
    <path
        d="M12.2788 8.83358L11.9998 9.11258L11.7208 8.83358C10.6328 7.74558 8.9078 7.74558 7.8148 8.83358C6.7258 9.92758 6.7258 11.6516 7.8148 12.7406L11.9998 16.9266L16.1858 12.7406C17.2748 11.6526 17.2748 9.92758 16.1858 8.83358C15.0918 7.74558 13.3668 7.74558 12.2788 8.83358Z"
        fill="#00C9C8" />
    <path
        d="M12 2C6.486 2 2 6.486 2 12C2 17.514 6.486 22 12 22C17.514 22 22 17.514 22 12C22 6.486 17.514 2 12 2ZM12 20C7.589 20 4 16.411 4 12C4 7.589 7.589 4 12 4C16.411 4 20 7.589 20 12C20 16.411 16.411 20 12 20Z"
        fill="#00C9C8" />
</svg>
